<svg width="10" height="10" viewBox="0 0 10 10" fill="none" xmlns="http://www.w3.org/2000/svg">
<g clip-path="url(#clip0)">
<path d="M9.58091 0H0.418924C0.281619 0 0.194243 0.149787 0.281619 0.27461L3.63935 4.98042C3.78914 5.18014 3.87651 5.44227 3.87651 5.70439V9.81106C3.88899 9.94836 4.00133 10.0357 4.11367 9.98581L6.02346 9.26184C6.08587 9.24936 6.12332 9.17446 6.12332 9.11205V5.70439C6.12332 5.44227 6.21069 5.19262 6.36048 4.98042L9.71821 0.27461C9.80559 0.149787 9.71821 0 9.58091 0Z" fill="#AAAAAA"/>
<path d="M9.58091 0H0.418924C0.281619 0 0.194243 0.149787 0.281619 0.27461L3.63935 4.98042C3.78914 5.18014 3.87651 5.44227 3.87651 5.70439V9.81106C3.88899 9.94836 4.00133 10.0357 4.11367 9.98581L6.02346 9.26184C6.08587 9.24936 6.12332 9.17446 6.12332 9.11205V5.70439C6.12332 5.44227 6.21069 5.19262 6.36048 4.98042L9.71821 0.27461C9.80559 0.149787 9.71821 0 9.58091 0Z" fill="#646464"/>
</g>
<defs>
<clipPath id="clip0">
<rect width="10" height="10" fill="white"/>
</clipPath>
</defs>
</svg>
